<svg width="411" height="122" viewBox="0 0 411 122" fill="none"
    xmlns="http://www.w3.org/2000/svg">
    <path d="M262 122H345C348.314 122 351 119.314 351 116V35.9051C351 34.3167 350.37 32.793 349.248 31.6683L319.425 1.76317C318.299 0.634396 316.771 0 315.177 0H262C258.686 0 256 2.68629 256 6V116C256 119.314 258.686 122 262 122Z" fill="#D9D9D9"/>
    <path d="M349.732 30.5817L320.692 1.27991C319.882 0.462947 318.789 0 317.642 0H260.318C257.93 0 256 1.9471 256 4.35714V117.643C256 120.053 257.93 122 260.318 122H346.682C349.07 122 351 120.053 351 117.643V33.6725C351 32.5152 350.541 31.3987 349.732 30.5817ZM341.284 112.196H265.716V9.80357H306.469V39.2143C306.469 40.731 307.066 42.1856 308.129 43.2581C309.192 44.3305 310.633 44.933 312.136 44.933H341.284V112.196Z" fill="#CBCBCB"/>
    <path d="M3.46277 92.5599C2.44944 92.5599 1.67611 92.2932 1.14277 91.7599C0.60944 91.1732 0.342773 90.3466 0.342773 89.2799V38.3999C0.342773 37.3332 0.60944 36.5065 1.14277 35.9199C1.67611 35.3332 2.36944 35.0399 3.22277 35.0399C4.07611 35.0399 4.68944 35.1999 5.06277 35.5199C5.48944 35.7865 5.96944 36.2932 6.50277 37.0399L41.3828 83.5199H39.4628V38.2399C39.4628 37.2265 39.7295 36.4532 40.2628 35.9199C40.7961 35.3332 41.5695 35.0399 42.5828 35.0399C43.5428 35.0399 44.2628 35.3332 44.7428 35.9199C45.2761 36.4532 45.5428 37.2265 45.5428 38.2399V89.3599C45.5428 90.3732 45.3028 91.1732 44.8228 91.7599C44.3961 92.2932 43.7561 92.5599 42.9028 92.5599C42.1028 92.5599 41.4628 92.3999 40.9828 92.0799C40.5028 91.7599 39.9961 91.2532 39.4628 90.5599L4.66277 44.0799H6.50277V89.2799C6.50277 90.3466 6.23611 91.1732 5.70277 91.7599C5.16944 92.2932 4.42277 92.5599 3.46277 92.5599ZM123.242 92.7199C118.015 92.7199 113.455 91.5466 109.562 89.1999C105.722 86.7999 102.735 83.4399 100.602 79.1199C98.5216 74.7999 97.4816 69.6799 97.4816 63.7599C97.4816 59.2799 98.0682 55.2799 99.2416 51.7599C100.468 48.1866 102.202 45.1732 104.442 42.7199C106.682 40.2132 109.375 38.2932 112.522 36.9599C115.722 35.5732 119.295 34.8799 123.242 34.8799C128.575 34.8799 133.162 36.0532 137.002 38.3999C140.895 40.7465 143.882 44.0799 145.962 48.3999C148.095 52.6666 149.162 57.7599 149.162 63.6799C149.162 68.1599 148.548 72.1866 147.322 75.7599C146.095 79.3332 144.362 82.3732 142.122 84.8799C139.882 87.3866 137.162 89.3332 133.962 90.7199C130.815 92.0532 127.242 92.7199 123.242 92.7199ZM123.242 86.8799C127.295 86.8799 130.708 85.9732 133.482 84.1599C136.308 82.3466 138.468 79.7066 139.962 76.2399C141.455 72.7732 142.202 68.6132 142.202 63.7599C142.202 56.4532 140.548 50.7999 137.242 46.7999C133.988 42.7466 129.322 40.7199 123.242 40.7199C119.295 40.7199 115.908 41.6265 113.082 43.4399C110.308 45.2532 108.175 47.8932 106.682 51.3599C105.188 54.7732 104.442 58.9066 104.442 63.7599C104.442 71.0132 106.095 76.6932 109.402 80.7999C112.708 84.8532 117.322 86.8799 123.242 86.8799ZM214.494 92.5599C213.481 92.5599 212.681 92.2666 212.094 91.6799C211.507 91.0399 211.214 90.1866 211.214 89.1199V41.2799H193.214C192.254 41.2799 191.507 41.0132 190.974 40.4799C190.441 39.9465 190.174 39.2532 190.174 38.3999C190.174 37.4932 190.441 36.7999 190.974 36.3199C191.507 35.8399 192.254 35.5999 193.214 35.5999H235.854C236.814 35.5999 237.561 35.8399 238.094 36.3199C238.627 36.7999 238.894 37.4932 238.894 38.3999C238.894 39.3065 238.627 40.0265 238.094 40.5599C237.561 41.0399 236.814 41.2799 235.854 41.2799H217.854V89.1199C217.854 90.1866 217.561 91.0399 216.974 91.6799C216.441 92.2666 215.614 92.5599 214.494 92.5599ZM389.598 92.7199C387.092 92.7199 384.638 92.5066 382.238 92.0799C379.838 91.6532 377.598 91.0399 375.518 90.2399C373.492 89.4399 371.652 88.4266 369.998 87.1999C369.358 86.7199 368.905 86.1866 368.638 85.5999C368.425 84.9599 368.372 84.3466 368.478 83.7599C368.638 83.1199 368.905 82.5866 369.278 82.1599C369.705 81.7332 370.212 81.4932 370.798 81.4399C371.385 81.3866 372.025 81.5732 372.718 81.9999C375.118 83.7066 377.678 84.9599 380.398 85.7599C383.118 86.5066 386.185 86.8799 389.598 86.8799C394.398 86.8799 397.945 85.9999 400.238 84.2399C402.585 82.4266 403.758 80.0532 403.758 77.1199C403.758 74.7199 402.905 72.8532 401.198 71.5199C399.545 70.1332 396.745 69.0399 392.798 68.2399L384.478 66.5599C379.465 65.4932 375.705 63.7599 373.198 61.3599C370.745 58.9066 369.518 55.6532 369.518 51.5999C369.518 49.0932 370.025 46.8266 371.038 44.7999C372.052 42.7199 373.465 40.9599 375.278 39.5199C377.092 38.0266 379.252 36.8799 381.758 36.0799C384.265 35.2799 387.038 34.8799 390.078 34.8799C393.438 34.8799 396.558 35.3599 399.438 36.3199C402.372 37.2265 405.012 38.6132 407.358 40.4799C407.945 40.9599 408.345 41.5199 408.558 42.1599C408.772 42.7465 408.798 43.3332 408.638 43.9199C408.478 44.4532 408.185 44.9066 407.758 45.2799C407.385 45.6532 406.878 45.8666 406.238 45.9199C405.652 45.9732 404.985 45.7599 404.238 45.2799C402.105 43.6799 399.892 42.5332 397.598 41.8399C395.305 41.0932 392.772 40.7199 389.998 40.7199C387.172 40.7199 384.718 41.1465 382.638 41.9999C380.612 42.8532 379.012 44.1066 377.838 45.7599C376.718 47.3599 376.158 49.2266 376.158 51.3599C376.158 53.9199 376.932 55.9466 378.478 57.4399C380.078 58.9332 382.665 60.0266 386.238 60.7199L394.558 62.4799C399.945 63.5999 403.918 65.3066 406.478 67.5999C409.092 69.8399 410.398 72.9066 410.398 76.7999C410.398 79.1466 409.918 81.3066 408.958 83.2799C407.998 85.2532 406.612 86.9599 404.798 88.3999C402.985 89.7866 400.798 90.8532 398.238 91.5999C395.678 92.3466 392.798 92.7199 389.598 92.7199Z" fill="#363636"/>
    <path d="M286.379 91.1199C287.019 91.7066 287.926 91.9999 289.099 91.9999H318.859C319.766 91.9999 320.459 91.7598 320.939 91.2799C321.419 90.7999 321.659 90.1066 321.659 89.1999C321.659 88.3466 321.419 87.6799 320.939 87.1999C320.459 86.7199 319.766 86.4799 318.859 86.4799H291.899V66.1599H317.179C318.086 66.1599 318.779 65.9199 319.259 65.4399C319.739 64.9599 319.979 64.2666 319.979 63.3599C319.979 62.4532 319.739 61.7866 319.259 61.3599C318.779 60.8799 318.086 60.6399 317.179 60.6399H291.899V41.1199H306.469V35.5999H289.099C287.926 35.5999 287.019 35.9199 286.379 36.5599C285.792 37.1465 285.499 38.0265 285.499 39.1999V88.3999C285.499 89.5732 285.792 90.4799 286.379 91.1199Z" fill="#363636"/>
</svg>
